<?xml version="1.0" encoding="UTF-8" standalone="no"?>
<!-- Created with Inkscape (http://www.inkscape.org/) -->

<svg
   xmlns:dc="http://purl.org/dc/elements/1.1/"
   xmlns:cc="http://creativecommons.org/ns#"
   xmlns:rdf="http://www.w3.org/1999/02/22-rdf-syntax-ns#"
   xmlns:svg="http://www.w3.org/2000/svg"
   xmlns="http://www.w3.org/2000/svg"
   xmlns:sodipodi="http://sodipodi.sourceforge.net/DTD/sodipodi-0.dtd"
   xmlns:inkscape="http://www.inkscape.org/namespaces/inkscape"
   width="460.32455"
   height="385.97635"
   id="svg2"
   version="1.1"
   inkscape:version="0.48.3.1 r9886"
   sodipodi:docname="sonews-logo.svg">
  <defs
     id="defs4" />
  <sodipodi:namedview
     id="base"
     pagecolor="#ffffff"
     bordercolor="#666666"
     borderopacity="1.0"
     inkscape:pageopacity="0.0"
     inkscape:pageshadow="2"
     inkscape:zoom="0.99609375"
     inkscape:cx="233.83637"
     inkscape:cy="144.32701"
     inkscape:document-units="px"
     inkscape:current-layer="layer1"
     showgrid="false"
     showguides="true"
     inkscape:guide-bbox="true"
     inkscape:window-width="1024"
     inkscape:window-height="719"
     inkscape:window-x="0"
     inkscape:window-y="0"
     inkscape:window-maximized="1"
     fit-margin-top="10"
     fit-margin-left="10"
     fit-margin-right="10"
     fit-margin-bottom="10">
    <sodipodi:guide
       orientation="1,0"
       position="627.37362,168.42113"
       id="guide3024" />
  </sodipodi:namedview>
  <metadata
     id="metadata7">
    <rdf:RDF>
      <cc:Work
         rdf:about="">
        <dc:format>image/svg+xml</dc:format>
        <dc:type
           rdf:resource="http://purl.org/dc/dcmitype/StillImage" />
        <dc:title></dc:title>
      </cc:Work>
    </rdf:RDF>
  </metadata>
  <g
     inkscape:label="Ebene 1"
     inkscape:groupmode="layer"
     id="layer1"
     transform="translate(-22.16363,-554.71285)">
    <rect
       id="rect3029"
       width="426.86255"
       height="352.51434"
       x="38.89463"
       y="571.44385"
       style="fill:#ebebeb;fill-opacity:1;stroke:#aaaaaa;stroke-width:13.46199989;stroke-linejoin:round;stroke-miterlimit:4;stroke-opacity:1;stroke-dasharray:none" />
    <flowRoot
       xml:space="preserve"
       id="flowRoot2993"
       style="font-size:144px;font-style:normal;font-variant:normal;font-weight:normal;font-stretch:normal;line-height:125%;letter-spacing:0px;word-spacing:0px;fill:#000000;fill-opacity:1;stroke:none;font-family:Ubuntu;-inkscape-font-specification:Ubuntu"
       transform="translate(0,540.36218)"><flowRegion
         id="flowRegion2995"><rect
           id="rect2997"
           width="310.21176"
           height="262.02353"
           x="135.52942"
           y="175.68628"
           style="font-size:144px;font-style:normal;font-variant:normal;font-weight:normal;font-stretch:normal;font-family:Ubuntu;-inkscape-font-specification:Ubuntu" /></flowRegion><flowPara
         id="flowPara2999"></flowPara></flowRoot>    <path
       inkscape:connector-curvature="0"
       id="path3010"
       style="font-size:144px;font-style:normal;font-variant:normal;font-weight:normal;font-stretch:normal;line-height:125%;letter-spacing:0px;word-spacing:0px;fill:#b51a22;fill-opacity:1;stroke:none;font-family:Ubuntu;-inkscape-font-specification:Ubuntu"
       d="m 132.96757,858.96747 c 18.2379,3e-5 31.67639,-2.26446 40.31558,-6.79348 8.95888,-4.52893 13.43835,-11.77531 13.43852,-21.73915 -1.7e-4,-10.26565 -4.31966,-18.4178 -12.95858,-24.45654 -8.63918,-6.03856 -22.87758,-12.83205 -42.7153,-20.38046 -9.59905,-3.62306 -18.878,-7.24625 -27.83695,-10.86957 -8.639113,-3.925 -16.158293,-8.45399 -22.557523,-13.58697 -6.39933,-5.13273 -11.51877,-11.32232 -15.35831,-18.56886 -3.83961,-7.24622 -5.7594,-16.15324 -5.75937,-26.72104 -3e-5,-20.83316 8.15907,-37.28846 24.47731,-49.36598 16.318143,-12.37899 38.555673,-18.56861 66.712673,-18.56886 7.0391,2.5e-4 14.07832,0.45315 21.11768,1.3587 7.0391,0.60412 13.59838,1.50991 19.67784,2.71739 6.07917,0.90605 11.35859,1.96282 15.83826,3.1703 4.79931,1.20798 8.4789,2.26474 11.03879,3.17029 l -8.1591,36.23191 c -4.79964,-2.41527 -12.31882,-4.8307 -22.55753,-7.24638 -10.239,-2.71717 -22.55765,-4.07587 -36.95594,-4.07609 -12.47873,2.2e-4 -23.35753,2.41568 -32.63641,7.24638 -9.27905,4.52918 -13.91854,11.77556 -13.91847,21.73915 -7e-5,5.13305 0.95983,9.66204 2.87968,13.58697 2.23969,3.92528 5.43934,7.54847 9.59895,10.86958 4.4794,3.01948 9.91881,5.88784 16.3182,8.60508 6.3992,2.71755 14.07836,5.58591 23.03747,8.60508 11.83857,4.22718 22.39741,8.45424 31.67652,12.68117 9.27882,3.92525 17.11796,8.6052 23.51742,14.03986 6.7191,5.43489 11.8385,12.0774 15.35831,19.92756 3.51942,7.54841 5.27922,16.90829 5.27942,28.07973 -2e-4,21.73918 -8.63925,38.19451 -25.91715,49.36599 -16.9583,11.17151 -41.2756,16.75726 -72.95199,16.75726 -22.07764,0 -39.355743,-1.8116 -51.834303,-5.43479 -12.47866,-3.32126 -20.95773,-5.88768 -25.43721,-7.69928 l 8.15911,-36.23192 c 5.1194,1.81166 13.27851,4.52903 24.47731,8.15219 11.1987,3.62322 26.077073,5.43481 44.635093,5.43478" />
    <path
       inkscape:connector-curvature="0"
       id="path3012"
       style="font-size:144px;font-style:normal;font-variant:normal;font-weight:normal;font-stretch:normal;line-height:125%;letter-spacing:0px;word-spacing:0px;fill:#b51a22;fill-opacity:1;stroke:none;font-family:Ubuntu;-inkscape-font-specification:Ubuntu"
       d="m 441.65353,743.8109 c -2.3e-4,15.29993 -2.63308,29.11917 -7.89846,41.45771 -5.26583,12.33867 -12.72551,22.94984 -22.37895,31.83361 -9.3613,8.8838 -20.62393,15.7934 -33.78782,20.72887 -13.16425,4.68867 -27.49848,7.03298 -43.00267,7.03298 -15.5045,0 -29.83873,-2.34431 -43.00271,-7.03298 -13.16416,-4.93547 -24.57304,-11.84507 -34.22664,-20.72887 -9.36114,-8.88377 -16.67454,-19.49494 -21.94013,-31.83361 -5.26568,-12.33854 -7.8985,-26.15778 -7.89846,-41.45771 -4e-5,-15.05298 2.63278,-28.74883 7.89846,-41.08756 5.26559,-12.58521 12.57899,-23.31983 21.94013,-32.20375 9.6536,-8.88365 21.06248,-15.66987 34.22664,-20.35869 13.16398,-4.93525 27.49821,-7.40295 43.00271,-7.40317 15.50419,2.2e-4 29.83842,2.46792 43.00267,7.40317 13.16389,4.68882 24.42652,11.47504 33.78782,20.35869 9.65344,8.88392 17.11312,19.61854 22.37895,32.20375 5.26538,12.33873 7.89823,26.03458 7.89846,41.08756 m -42.56389,0 c -1.7e-4,-21.71581 -5.85089,-38.86647 -17.5521,-51.45199 -11.40905,-12.83198 -27.05967,-19.24805 -46.95191,-19.24824 -19.89255,1.9e-4 -35.68942,6.41626 -47.39073,19.24824 -11.40895,12.58552 -17.11339,29.73618 -17.11332,51.45199 -7e-5,21.71603 5.70437,38.99004 17.11332,51.82215 11.70131,12.5854 27.49818,18.87808 47.39073,18.87808 19.89224,0 35.54286,-6.29268 46.95191,-18.87808 11.70121,-12.83211 17.55193,-30.10612 17.5521,-51.82215" />
    <path
       inkscape:connector-curvature="0"
       id="path3849"
       style="font-size:64px;font-style:normal;font-variant:normal;font-weight:normal;font-stretch:normal;line-height:125%;letter-spacing:0px;word-spacing:0px;fill:#b51a22;fill-opacity:1;stroke:none;font-family:Ubuntu;-inkscape-font-specification:Ubuntu"
       d="m 240.79454,854.9846 c 1.92058,-0.41989 4.47135,-0.86607 7.65233,-1.33852 3.18095,-0.47238 6.84206,-0.70859 10.98335,-0.70863 3.7211,4e-5 6.81204,0.47245 9.27283,1.41726 2.46071,0.89239 4.4113,2.17841 5.85178,3.85808 1.50042,1.62725 2.55073,3.59566 3.15096,5.90524 0.60013,2.30963 0.90023,4.85544 0.90027,7.63743 l 0,22.99105 -8.37255,0 0,-21.41632 c -4e-5,-2.51954 -0.2101,-4.67166 -0.63019,-6.45639 -0.36015,-1.78466 -0.99033,-3.22815 -1.89058,-4.3305 -0.9003,-1.10228 -2.10067,-1.88964 -3.60109,-2.3621 -1.50049,-0.52487 -3.36105,-0.78732 -5.58171,-0.78736 -0.9003,4e-5 -1.83058,0.0263 -2.79085,0.0787 -0.96031,0.0525 -1.89059,0.13125 -2.79085,0.23621 -0.84028,0.0525 -1.6205,0.13125 -2.34071,0.2362 -0.66021,0.10507 -1.14037,0.18376 -1.44044,0.23621 l 0,34.56531 -8.37255,0 0,-39.76191" />
    <path
       inkscape:connector-curvature="0"
       id="path3851"
       style="font-size:64px;font-style:normal;font-variant:normal;font-weight:normal;font-stretch:normal;line-height:125%;letter-spacing:0px;word-spacing:0px;fill:#b51a22;fill-opacity:1;stroke:none;font-family:Ubuntu;-inkscape-font-specification:Ubuntu"
       d="m 289.87919,874.35377 c 0,-3.62185 0.60017,-6.77131 1.80055,-9.44838 1.20036,-2.7295 2.79083,-4.98661 4.77145,-6.77133 1.98059,-1.78466 4.26128,-3.12317 6.84209,-4.01556 2.58076,-0.89231 5.22156,-1.33849 7.92241,-1.33852 6.3019,3e-5 11.13336,1.73224 14.49442,5.1966 3.36098,3.41195 5.0415,8.6348 5.04154,15.66856 -4e-5,0.31497 -4e-5,0.73489 0,1.25978 -4e-5,0.47245 -0.0301,0.91861 -0.09,1.33852 l -32.04977,0 c 0.3601,4.25178 1.77053,7.47998 4.23129,9.68459 2.46073,2.20463 6.30189,3.30693 11.52351,3.30693 2.94086,0 5.40162,-0.20996 7.38225,-0.62989 2.04059,-0.47241 3.57105,-0.91859 4.5914,-1.33852 l 1.17036,6.14144 c -1.02035,0.47242 -2.8209,0.97108 -5.40165,1.496 -2.52079,0.52491 -5.40167,0.78736 -8.64263,0.78736 -4.08127,0 -7.62234,-0.52491 -10.62324,-1.57473 -2.94092,-1.10231 -5.37166,-2.5983 -7.29222,-4.48798 -1.9206,-1.88966 -3.36104,-4.12054 -4.32132,-6.6926 -0.90027,-2.62453 -1.35041,-5.48528 -1.35041,-8.58227 m 32.1398,-4.01556 c 0.0599,-3.30691 -0.90032,-6.01019 -2.88088,-8.10986 -1.92063,-2.1521 -4.59143,-3.22816 -8.01245,-3.22819 -1.9206,3e-5 -3.63113,0.34122 -5.13156,1.02357 -1.44045,0.62993 -2.67083,1.46978 -3.69112,2.51957 -1.02032,1.04985 -1.83057,2.25714 -2.43075,3.62188 -0.54017,1.36479 -0.90028,2.7558 -1.08032,4.17303 l 23.22708,0" />
    <path
       inkscape:connector-curvature="0"
       id="path3853"
       style="font-size:64px;font-style:normal;font-variant:normal;font-weight:normal;font-stretch:normal;line-height:125%;letter-spacing:0px;word-spacing:0px;fill:#b51a22;fill-opacity:1;stroke:none;font-family:Ubuntu;-inkscape-font-specification:Ubuntu"
       d="m 381.04041,894.74651 c -1.68055,-3.77935 -3.4811,-8.0836 -5.40164,-12.91278 -1.8606,-4.88165 -3.57112,-9.94702 -5.13157,-15.19614 -1.56051,5.24912 -3.27103,10.31449 -5.13156,15.19614 -1.8606,4.82918 -3.63113,9.13343 -5.31162,12.91278 l -7.29222,0 c -2.76086,-5.40656 -5.46169,-11.57425 -8.10247,-18.50307 -2.64082,-6.92878 -5.13157,-14.40873 -7.47228,-22.43989 l 9.00274,0 c 0.60018,2.46711 1.3204,5.14415 2.16066,8.03112 0.84024,2.88703 1.71051,5.77404 2.6108,8.66101 0.96028,2.88702 1.95057,5.66904 2.9709,8.34607 1.0203,2.67705 1.98059,5.0129 2.88088,7.00754 1.02029,-2.46706 2.0106,-5.06536 2.97091,-7.79491 1.02029,-2.782 1.98057,-5.56402 2.88088,-8.34606 0.90024,-2.83449 1.74049,-5.59027 2.52076,-8.26733 0.84023,-2.7295 1.56045,-5.27531 2.16066,-7.63744 l 6.93212,0 c 0.54012,2.36213 1.20032,4.90794 1.9806,7.63744 0.7802,2.67706 1.62045,5.43284 2.52077,8.26733 0.90023,2.78204 1.83051,5.56406 2.79085,8.34606 1.02026,2.72955 2.04057,5.32785 3.06093,7.79491 0.90022,-1.99464 1.83051,-4.33049 2.79085,-7.00754 1.02027,-2.67703 2.01057,-5.45905 2.97091,-8.34607 0.96024,-2.88697 1.86051,-5.77398 2.70082,-8.66101 0.8402,-2.88697 1.56042,-5.56401 2.16066,-8.03112 l 8.64264,0 c -2.34079,8.03116 -4.83154,15.51111 -7.47228,22.43989 -2.64086,6.92882 -5.34168,13.09651 -8.10247,18.50307 l -7.29223,0" />
    <path
       inkscape:connector-curvature="0"
       id="path3855"
       style="font-size:64px;font-style:normal;font-variant:normal;font-weight:normal;font-stretch:normal;line-height:125%;letter-spacing:0px;word-spacing:0px;fill:#b51a22;fill-opacity:1;stroke:none;font-family:Ubuntu;-inkscape-font-specification:Ubuntu"
       d="m 423.65434,889.47117 c 3.42102,0 5.94179,-0.39368 7.56231,-1.18105 1.68049,-0.78735 2.52074,-2.04713 2.52077,-3.77935 -3e-5,-1.78468 -0.81028,-3.20194 -2.43075,-4.25177 -1.62052,-1.0498 -4.29132,-2.23085 -8.01244,-3.54314 -1.80056,-0.62988 -3.54109,-1.25976 -5.22159,-1.88967 -1.62051,-0.68237 -3.03093,-1.46973 -4.23129,-2.3621 -1.20037,-0.89232 -2.16066,-1.96838 -2.88088,-3.22819 -0.72022,-1.25976 -1.08033,-2.80824 -1.08033,-4.64545 0,-3.62184 1.53047,-6.4826 4.5914,-8.58228 3.06092,-2.15209 7.23219,-3.22816 12.51382,-3.22819 1.32038,3e-5 2.64078,0.0787 3.96121,0.23621 1.32037,0.10506 2.55074,0.2625 3.69112,0.47241 1.14032,0.15751 2.13061,0.34124 2.97091,0.55116 0.90024,0.21 1.59044,0.39372 2.07063,0.55115 l -1.53047,6.29892 c -0.9003,-0.4199 -2.31074,-0.83982 -4.23129,-1.25978 -1.92061,-0.47238 -4.23132,-0.70859 -6.93211,-0.70863 -2.34073,4e-5 -4.38136,0.41996 -6.12187,1.25978 -1.74054,0.78741 -2.61081,2.04719 -2.61079,3.77935 -2e-5,0.89238 0.18004,1.67975 0.54016,2.3621 0.42012,0.68241 1.02029,1.3123 1.80055,1.88967 0.84024,0.52494 1.86054,1.0236 3.06093,1.496 1.20035,0.47244 2.64079,0.9711 4.32132,1.49599 2.22065,0.73489 4.20126,1.46976 5.94181,2.20462 1.7405,0.6824 3.21094,1.49602 4.41135,2.44083 1.26035,0.94485 2.22063,2.09966 2.88087,3.46441 0.66017,1.31229 0.99026,2.9395 0.99031,4.88166 -5e-5,3.77936 -1.62053,6.64011 -4.86149,8.58227 -3.18099,1.94217 -7.74238,2.91325 -13.68417,2.91325 -4.14127,0 -7.38226,-0.31495 -9.72296,-0.94484 -2.34072,-0.57739 -3.9312,-1.02357 -4.77146,-1.33852 l 1.53047,-6.29891 c 0.96028,0.31495 2.49075,0.78737 4.5914,1.41725 2.10062,0.62989 4.89147,0.94484 8.37255,0.94484" />
  </g>
</svg>
